<svg version="1.1" xmlns="http://www.w3.org/2000/svg" xmlns:xlink="http://www.w3.org/1999/xlink" width="41.54447" height="34.94456" viewBox="0,0,41.54447,34.94456"><g transform="translate(-217.62535,-163.69499)"><g data-paper-data="{&quot;isPaintingLayer&quot;:true}" fill-rule="nonzero" stroke-linejoin="miter" stroke-miterlimit="10" stroke-dasharray="" stroke-dashoffset="0" style="mix-blend-mode: normal"><path d="M242.51942,195.86887c-8.1194,4.09891 -18.02447,0.8396 -22.12338,-7.2798c-4.09891,-8.1194 -0.8396,-18.02447 7.2798,-22.12338c8.1194,-4.09891 18.02447,-0.8396 22.12338,7.2798c4.09891,8.1194 0.8396,18.02447 -7.2798,22.12338z" data-paper-data="{&quot;index&quot;:null}" fill="#321e17" stroke="#000000" stroke-width="2" stroke-linecap="butt"/><path d="M226.78883,187.98814c0.45862,-3.48077 1.5382,-2.20238 1.5382,-2.20238c0,0 8.9628,-3.98717 12.00838,-2.93193c3.90275,1.35223 10.73086,5.75256 10.73086,5.75256c0,0 -1.54681,2.89718 -4.73999,3.70673c-3.13102,0.79379 -7.88348,-0.50149 -10.46576,-0.32858c-4.46114,0.29871 -9.30436,-2.23057 -9.07171,-3.99639z" data-paper-data="{&quot;index&quot;:null}" fill="#3e261e" stroke="none" stroke-width="0" stroke-linecap="butt"/><path d="M227.03883,194.11314c0.45862,-3.48077 2.7882,-6.82738 2.7882,-6.82738c0,0 16.07014,2.37073 16.36424,5.82063c0.10389,1.21869 -4.86491,4.6539 -10.08075,5.00315c-4.46114,0.29871 -9.30436,-2.23057 -9.07171,-3.99639z" data-paper-data="{&quot;index&quot;:null}" fill="#2f1c16" stroke="none" stroke-width="0" stroke-linecap="butt"/><path d="M220.57703,187.03576c0,0 3.41182,0.64148 6.15228,-0.3862c2.7566,-1.03372 5.19923,-2.81901 6.65612,-3.90412c2.21043,-1.64637 14.85302,-0.41529 16.7372,1.06185c1.40482,1.10134 -0.65139,3.4148 -0.93361,4.72942c-0.57562,2.68137 -2.77085,6.01303 -8.01079,7.81335c-5.37413,1.84642 -12.4138,0.25245 -12.4138,0.25245l-5.96955,-5.50677z" data-paper-data="{&quot;index&quot;:null}" fill="#ffe6e0" stroke="none" stroke-width="0" stroke-linecap="butt"/><path d="M242.51942,195.86887c-8.1194,4.09891 -18.02447,0.8396 -22.12338,-7.2798c-4.09891,-8.1194 -0.8396,-18.02447 7.2798,-22.12338c8.1194,-4.09891 18.02447,-0.8396 22.12338,7.2798c4.09891,8.1194 0.8396,18.02447 -7.2798,22.12338z" data-paper-data="{&quot;index&quot;:null}" fill="none" stroke="#000000" stroke-width="2" stroke-linecap="butt"/><path d="M240.21675,180.37552c-1.57767,0.79645 -3.50228,0.16315 -4.29874,-1.41452c-0.79645,-1.57767 -0.16315,-3.50228 1.41452,-4.29874c1.57767,-0.79645 3.50228,-0.16315 4.29874,1.41452c0.79645,1.57767 0.16315,3.50228 -1.41452,4.29874z" data-paper-data="{&quot;index&quot;:null}" fill="#000000" stroke="none" stroke-width="0" stroke-linecap="butt"/><path d="M250.30272,181.877c0,0 -4.16132,1.66838 -4.37795,1.23927c-0.04428,-0.08771 -0.50897,-1.78261 -0.38377,-3.1788c0.14874,-1.65872 1.10441,-3.23409 1.10441,-3.23409l7.9897,-0.15006l1.26184,2.49955z" data-paper-data="{&quot;index&quot;:null}" fill="#232732" stroke="none" stroke-width="0" stroke-linecap="butt"/><path d="M247.03368,176.88078l10.88614,1.00153" data-paper-data="{&quot;index&quot;:null}" fill="none" stroke="#000000" stroke-width="2.5" stroke-linecap="round"/><path d="M257.29522,178.27231c0,0 -1.60521,1.92247 -2.97879,2.70052c-1.76164,0.99784 -6.71955,2.79292 -6.71955,2.79292" data-paper-data="{&quot;index&quot;:null}" fill="none" stroke="#000000" stroke-width="3.5" stroke-linecap="round"/></g></g></svg>