<svg version="1.1" xmlns="http://www.w3.org/2000/svg" xmlns:xlink="http://www.w3.org/1999/xlink" width="41.54447" height="34.94456" viewBox="0,0,41.54447,34.94456"><g transform="translate(-217.62536,-163.695)"><g data-paper-data="{&quot;isPaintingLayer&quot;:true}" fill-rule="nonzero" stroke-linejoin="miter" stroke-miterlimit="10" stroke-dasharray="" stroke-dashoffset="0" style="mix-blend-mode: normal"><path d="M242.51943,195.86887c-8.1194,4.09891 -18.02447,0.8396 -22.12338,-7.2798c-4.09891,-8.1194 -0.8396,-18.02447 7.2798,-22.12338c8.1194,-4.09891 18.02447,-0.8396 22.12338,7.2798c4.09891,8.1194 0.8396,18.02447 -7.2798,22.12338z" data-paper-data="{&quot;index&quot;:null}" fill="#ff00e3" stroke="#000000" stroke-width="2" stroke-linecap="butt"/><path d="M235.21009,181.35478l-0.125,-17.4375l9.5,3.1875c0,0 4.76121,4.73324 6.05393,7.2741c1.08875,2.13996 0.82107,6.9759 0.82107,6.9759z" fill="#000000" stroke="#000000" stroke-width="0" stroke-linecap="butt"/><path d="M242.51943,195.86887c-8.1194,4.09891 -18.02447,0.8396 -22.12338,-7.2798c-4.09891,-8.1194 -0.8396,-18.02447 7.2798,-22.12338c8.1194,-4.09891 18.02447,-0.8396 22.12338,7.2798c4.09891,8.1194 0.8396,18.02447 -7.2798,22.12338z" data-paper-data="{&quot;index&quot;:null}" fill="none" stroke="#000000" stroke-width="2" stroke-linecap="butt"/><path d="M240.15426,180.37552c-1.57767,0.79645 -3.50228,0.16315 -4.29874,-1.41452c-0.79645,-1.57767 -0.16315,-3.50228 1.41452,-4.29874c1.57767,-0.79645 3.50228,-0.16315 4.29874,1.41452c0.79645,1.57767 0.16315,3.50228 -1.41452,4.29874z" data-paper-data="{&quot;index&quot;:null}" fill="#ffffff" stroke="none" stroke-width="0" stroke-linecap="butt"/><path d="M250.36523,181.877c0,0 -4.16132,1.66838 -4.37795,1.23927c-0.04428,-0.08771 -0.50897,-1.78261 -0.38377,-3.1788c0.14874,-1.65872 1.10441,-3.23409 1.10441,-3.23409l7.9897,-0.15006l1.26184,2.49955z" data-paper-data="{&quot;index&quot;:null}" fill="#ffffff" stroke="none" stroke-width="0" stroke-linecap="butt"/><path d="M247.03369,176.88078l10.88614,1.00153" data-paper-data="{&quot;index&quot;:null}" fill="none" stroke="#000000" stroke-width="2.5" stroke-linecap="round"/><path d="M257.29523,178.27231c0,0 -1.60521,1.92247 -2.97879,2.70052c-1.76164,0.99784 -6.71955,2.79292 -6.71955,2.79292" data-paper-data="{&quot;index&quot;:null}" fill="none" stroke="#000000" stroke-width="3.5" stroke-linecap="round"/><path d="M227.27724,195.65835c0,0 -6.375,-5.35705 -6.375,-5.51339c0,-1.26928 -2.25,-8.79911 -2.25,-8.79911h16.625v16.0625z" fill="#000000" stroke="#000000" stroke-width="0" stroke-linecap="butt"/><text transform="translate(223.0625,189.78125) scale(0.24269,0.24269)" font-size="40" xml:space="preserve" fill="#00ff08" fill-rule="nonzero" stroke="none" stroke-width="1" stroke-linecap="butt" stroke-linejoin="miter" stroke-miterlimit="10" stroke-dasharray="" stroke-dashoffset="0" font-family="Sans Serif" font-weight="normal" text-anchor="start" style="mix-blend-mode: normal"><tspan x="0" dy="0">Male</tspan></text></g></g></svg>